<svg width="743" height="800" viewBox="0 0 743 800" fill="none" xmlns="http://www.w3.org/2000/svg">
<path d="M714.364 224.716C694.986 176.736 665.588 132.067 624.936 93.4313C592.589 62.6781 554.073 39.3281 512.337 23.6516C470.616 7.94531 425.752 0 381.083 0C337.002 0 293.128 7.75 252.611 23.275C212.08 38.7719 174.963 62 143.986 92.9797C115.852 121.114 94.1109 154.634 79.4719 190.712C64.8016 226.763 57.2187 265.306 57.2187 303.372C57.2187 336.833 63.0719 369.858 74.9719 400.534C86.8875 431.197 104.806 459.511 129.209 483.944C153.356 508.092 182.875 527.109 214.847 540.003C246.787 552.912 281.166 559.712 314.745 559.683C342.684 559.683 370.037 555.017 395.164 545.509C420.319 535.988 443.263 521.68 462.852 502.119C481.238 483.703 494.942 462.55 504.136 439.922C513.284 417.323 517.856 393.236 517.856 369.15C517.856 345.106 513.253 321.094 504.091 298.542C494.928 275.989 481.238 254.85 462.852 236.48C447.836 221.48 431.047 210.603 413.548 203.441C396.036 196.264 377.741 192.819 359.897 192.819C341.422 192.819 323.442 196.548 307.33 203.559C291.186 210.602 276.923 220.892 265.564 234.161C246.275 256.669 236.345 283.902 236.345 309.764C236.375 322.175 238.616 334.272 243.191 345.616C247.766 356.975 254.641 367.642 264.239 377.272C271.733 384.734 279.57 389.773 287.62 393.069C295.655 396.364 303.93 397.883 312.28 397.883C321.712 397.883 331.191 395.897 340.008 392.166C348.825 388.45 356.933 383.019 363.569 376.383C367.194 372.756 369.994 368.153 371.934 362.783C373.875 357.427 374.837 351.333 374.823 345.527C374.837 340.742 374.161 336.153 373.123 332.558C372.161 329.006 370.761 326.448 370.083 325.575C358.289 320.13 352.57 306.378 357.309 294.07C362.23 281.222 376.673 274.783 389.522 279.717C396.863 282.531 402.625 287.119 407.05 292.084C411.487 297.08 414.738 302.556 417.295 308.258C422.32 319.692 424.667 332.286 424.711 345.525C424.711 356.642 422.952 368.213 418.889 379.588C414.812 390.963 408.358 402.155 398.834 411.65C387.505 422.978 374.069 431.945 359.369 438.144C344.684 444.312 328.677 447.742 312.278 447.758C297.775 447.758 282.984 445.064 268.752 439.256C254.52 433.45 240.964 424.512 228.973 412.537C214.68 398.244 203.952 381.755 196.927 364.242C189.855 346.73 186.484 328.223 186.484 309.764C186.5 271.202 201.05 232.837 227.648 201.753C244.184 182.42 264.781 167.691 287.394 157.822C310.052 147.981 334.769 142.956 359.895 142.956C384.164 142.956 408.839 147.622 432.412 157.28C455.973 166.908 478.452 181.519 498.116 201.213C521.255 224.352 538.694 251.177 550.323 279.778C561.939 308.394 567.745 338.77 567.745 369.147C567.745 399.569 561.953 429.989 550.353 458.65C538.738 487.313 521.316 514.183 498.116 537.383C473.322 562.208 444.073 580.353 412.794 592.177C381.53 604.002 348.205 609.569 314.744 609.569C274.484 609.569 233.952 601.536 196.144 586.25C166.414 574.244 138.386 557.664 113.5 536.947L0 664.636C39.6875 706.189 86.8859 738.612 138.191 761.286C195.933 786.833 258.837 800.012 321.622 799.997C375.891 799.997 430.023 790.172 480.77 770.147C531.548 750.122 578.927 719.925 619.939 678.928C659.086 639.809 689.87 592.087 710.873 540.016C731.831 487.944 742.98 431.553 742.964 375.316C742.966 323.923 733.697 272.68 714.364 224.716Z" fill="url(#paint0_linear_1_3)"/>
<defs>
<linearGradient id="paint0_linear_1_3" x1="371.482" y1="0" x2="371.482" y2="799.997" gradientUnits="userSpaceOnUse">
<stop stop-color="#52B69A"/>
<stop offset="1" stop-color="#588157"/>
</linearGradient>
</defs>
</svg>
